<?xml version="1.0" encoding="UTF-8" standalone="no"?>
<!-- Created with Inkscape (http://www.inkscape.org/) -->

<svg
   xmlns:dc="http://purl.org/dc/elements/1.1/"
   xmlns:cc="http://creativecommons.org/ns#"
   xmlns:rdf="http://www.w3.org/1999/02/22-rdf-syntax-ns#"
   xmlns:svg="http://www.w3.org/2000/svg"
   xmlns="http://www.w3.org/2000/svg"
   xmlns:xlink="http://www.w3.org/1999/xlink"
   xmlns:sodipodi="http://sodipodi.sourceforge.net/DTD/sodipodi-0.dtd"
   xmlns:inkscape="http://www.inkscape.org/namespaces/inkscape"
   id="svg8727"
   version="1.1"
   inkscape:version="0.48.4 r9939"
   width="1463"
   height="398"
   sodipodi:docname="correanp1.png">
  <metadata
     id="metadata8733">
    <rdf:RDF>
      <cc:Work
         rdf:about="">
        <dc:format>image/svg+xml</dc:format>
        <dc:type
           rdf:resource="http://purl.org/dc/dcmitype/StillImage" />
        <dc:title></dc:title>
      </cc:Work>
    </rdf:RDF>
  </metadata>
  <defs
     id="defs8731" />
  <sodipodi:namedview
     pagecolor="#ffffff"
     bordercolor="#666666"
     borderopacity="1"
     objecttolerance="10"
     gridtolerance="10"
     guidetolerance="10"
     inkscape:pageopacity="0"
     inkscape:pageshadow="2"
     inkscape:window-width="1920"
     inkscape:window-height="1178"
     id="namedview8729"
     showgrid="false"
     inkscape:zoom="0.9241285"
     inkscape:cx="774.76744"
     inkscape:cy="416.3941"
     inkscape:window-x="2560"
     inkscape:window-y="0"
     inkscape:window-maximized="1"
     inkscape:current-layer="layer9" />
  <g
     inkscape:groupmode="layer"
     id="layer7"
     inkscape:label="origg"
     style="opacity:0.53086416;display:none">
    <image
       style="display:inline"
       width="1463"
       height="398"
       xlink:href="file:///home/nordhofs/versioning/git/langsci/books/Santos/6577226bnkvmt/figures/correanp1.png"
       id="image8735"
       x="0"
       y="0" />
  </g>
  <g
     inkscape:groupmode="layer"
     id="layer8"
     inkscape:label="cupboard"
     style="display:inline">
    <rect
       style="color:#000000;fill:#c7a455;fill-opacity:1;fill-rule:evenodd;stroke:none;stroke-width:1;marker:none;visibility:visible;display:inline;overflow:visible;enable-background:accumulate"
       id="rect9098"
       width="208.71118"
       height="237.89934"
       x="800.91833"
       y="83.58461" />
    <path
       style="fill:#c7a455;fill-opacity:1;stroke:#000000;stroke-width:1px;stroke-linecap:butt;stroke-linejoin:miter;stroke-opacity:1"
       d="m 803.45969,321.71191 -76.28809,14.06731 0.54105,-229.40533 73.04179,-15.149408 z"
       id="path9070"
       inkscape:connector-curvature="0"
       sodipodi:nodetypes="ccccc" />
    <path
       style="fill:#c7a455;fill-opacity:1;stroke:#000000;stroke-width:1px;stroke-linecap:butt;stroke-linejoin:miter;stroke-opacity:1"
       d="m 802.91864,321.17086 -0.54105,41.66087 8.65681,0 0.54105,-36.25037 161.77403,-6.4926 0,39.49667 7.57471,0 -0.54105,-17.85466 24.34726,-21.10096 1.0821,21.64201 8.1157,-1.35263 -5.8768,-296.584915 -34.26355,40.190669"
       id="path9094"
       inkscape:connector-curvature="0"
       sodipodi:nodetypes="ccccccccccccc" />
    <path
       style="fill:#c7a455;fill-opacity:1;stroke:#000000;stroke-width:1px;stroke-linecap:butt;stroke-linejoin:miter;stroke-opacity:1"
       d="M 801.06575,82.983078 844.57951,41.447854 1007.571,43.612056 973.62001,84.190828 z"
       id="path9074"
       inkscape:connector-curvature="0"
       sodipodi:nodetypes="ccccc" />
    <path
       style="fill:#c7a455;fill-opacity:1;stroke:#000000;stroke-width:1px;stroke-linecap:butt;stroke-linejoin:miter;stroke-opacity:1"
       d="m 806.70599,90.235211 1.0821,82.687869 160.15089,-4.86946 -1.82007,-78.069709 z"
       id="path9076"
       inkscape:connector-curvature="0"
       sodipodi:nodetypes="ccccc" />
    <path
       style="fill:#c7a455;fill-opacity:1;stroke:#000000;stroke-width:1px;stroke-linecap:butt;stroke-linejoin:miter;stroke-opacity:1"
       d="m 808.32914,178.60411 159.06879,-4.05788 2.70525,75.20599 -160.69194,4.86945 z"
       id="path9078"
       inkscape:connector-curvature="0"
       sodipodi:nodetypes="ccccc" />
    <path
       style="fill:#c7a455;fill-opacity:1;stroke:#000000;stroke-width:1px;stroke-linecap:butt;stroke-linejoin:miter;stroke-opacity:1"
       d="m 808.87019,258.40902 1.0821,61.67974 160.69194,-5.95156 0.54105,-57.89238 z"
       id="path9080"
       inkscape:connector-curvature="0"
       sodipodi:nodetypes="ccccc" />
    <path
       style="fill:#c7a455;fill-opacity:1;stroke:#000000;stroke-width:1px;stroke-linecap:butt;stroke-linejoin:miter;stroke-opacity:1"
       d="m 811.03439,316.84246 30.83987,-27.59357 128.29456,-3.06064"
       id="path9082"
       inkscape:connector-curvature="0"
       sodipodi:nodetypes="ccc" />
    <path
       style="fill:#c7a455;fill-opacity:1;stroke:#000000;stroke-width:1px;stroke-linecap:butt;stroke-linejoin:miter;stroke-opacity:1"
       d="m 809.95229,251.37537 38.95563,-35.70932 119.22235,-3.72734"
       id="path9084"
       inkscape:connector-curvature="0"
       sodipodi:nodetypes="ccc" />
    <path
       style="fill:#c7a455;fill-opacity:1;stroke:#000000;stroke-width:1px;stroke-linecap:butt;stroke-linejoin:miter;stroke-opacity:1"
       d="m 809.41124,170.75888 41.11983,-35.16827 117.40791,-1.62315"
       id="path9086"
       inkscape:connector-curvature="0"
       sodipodi:nodetypes="ccc" />
    <path
       style="fill:#c7a455;fill-opacity:1;stroke:#000000;stroke-width:1px;stroke-linecap:butt;stroke-linejoin:miter;stroke-opacity:1"
       d="M 800.77765,91.31333 800.6059,83.253602"
       id="path9088"
       inkscape:connector-curvature="0"
       sodipodi:nodetypes="cc" />
    <path
       style="fill:#c7a455;fill-opacity:1;stroke:#000000;stroke-width:1px;stroke-linecap:butt;stroke-linejoin:miter;stroke-opacity:1"
       d="m 973.89053,84.461353 75.20597,0.270525 2.1642,226.159022 -75.74702,4.3284 z"
       id="path9072"
       inkscape:connector-curvature="0"
       sodipodi:nodetypes="ccccc" />
    <path
       style="fill:#c7a455;fill-opacity:1;stroke:#000000;stroke-width:1px;stroke-linecap:butt;stroke-linejoin:miter;stroke-opacity:1"
       d="m 842.14479,325.22873 0.27052,16.50204 7.57471,-2.1642 0,-14.60836 0,0"
       id="path9096"
       inkscape:connector-curvature="0"
       sodipodi:nodetypes="ccccc" />
  </g>
  <g
     inkscape:groupmode="layer"
     id="layer9"
     inkscape:label="cupboard2"
     style="display:inline">
    <rect
       style="color:#000000;fill:#c7a455;fill-opacity:1;fill-rule:evenodd;stroke:none;stroke-width:1;marker:none;visibility:visible;display:inline;overflow:visible;enable-background:accumulate"
       id="rect9098-5"
       width="208.71118"
       height="237.89934"
       x="1198.7024"
       y="82.798531" />
    <path
       style="fill:#c7a455;fill-opacity:1;stroke:#000000;stroke-width:1px;stroke-linecap:butt;stroke-linejoin:miter;stroke-opacity:1;display:inline"
       d="m 1201.2438,320.92583 -76.2881,14.06731 0.5411,-229.40534 73.0418,-15.149407 z"
       id="path9070-5"
       inkscape:connector-curvature="0"
       sodipodi:nodetypes="ccccc" />
    <path
       style="fill:#c7a455;fill-opacity:1;stroke:#000000;stroke-width:1px;stroke-linecap:butt;stroke-linejoin:miter;stroke-opacity:1;display:inline"
       d="m 1200.7028,320.38478 -0.5411,41.66087 8.6568,0 0.5411,-36.25037 165.2173,-3.81454 1.1478,39.11409 7.5747,-0.76516 0.9892,-27.80175 18.226,-12.68419 1.0821,21.64201 8.1157,-1.35263 -5.8768,-296.584917 -34.2636,40.19066"
       id="path9094-3"
       inkscape:connector-curvature="0"
       sodipodi:nodetypes="ccccccccccccc" />
    <path
       style="fill:#c7a455;fill-opacity:1;stroke:#000000;stroke-width:1px;stroke-linecap:butt;stroke-linejoin:miter;stroke-opacity:1;display:inline"
       d="m 1198.8499,82.196993 43.5137,-41.53523 162.9916,2.16421 -33.951,40.57877 z"
       id="path9074-8"
       inkscape:connector-curvature="0"
       sodipodi:nodetypes="ccccc" />
    <path
       style="fill:#c7a455;fill-opacity:1;stroke:#000000;stroke-width:1px;stroke-linecap:butt;stroke-linejoin:miter;stroke-opacity:1;display:inline"
       d="m 1204.4901,89.449123 1.0821,82.687877 160.151,-4.86946 -1.8201,-78.069717 z"
       id="path9076-6"
       inkscape:connector-curvature="0"
       sodipodi:nodetypes="ccccc" />
    <path
       style="fill:#c7a455;fill-opacity:1;stroke:#000000;stroke-width:1px;stroke-linecap:butt;stroke-linejoin:miter;stroke-opacity:1;display:inline"
       d="m 1206.1133,177.81803 159.0688,-4.05788 2.7053,75.20599 -160.692,4.86945 z"
       id="path9078-0"
       inkscape:connector-curvature="0"
       sodipodi:nodetypes="ccccc" />
    <path
       style="fill:#c7a455;fill-opacity:1;stroke:#000000;stroke-width:1px;stroke-linecap:butt;stroke-linejoin:miter;stroke-opacity:1;display:inline"
       d="m 1206.6543,257.62294 1.0821,61.67974 160.692,-5.95156 0.5411,-57.89238 z"
       id="path9080-3"
       inkscape:connector-curvature="0"
       sodipodi:nodetypes="ccccc" />
    <path
       style="fill:#c7a455;fill-opacity:1;stroke:#000000;stroke-width:1px;stroke-linecap:butt;stroke-linejoin:miter;stroke-opacity:1;display:inline"
       d="m 1208.8185,316.05638 30.8399,-27.59357 128.2946,-3.06064"
       id="path9082-3"
       inkscape:connector-curvature="0"
       sodipodi:nodetypes="ccc" />
    <path
       style="fill:#c7a455;fill-opacity:1;stroke:#000000;stroke-width:1px;stroke-linecap:butt;stroke-linejoin:miter;stroke-opacity:1;display:inline"
       d="m 1207.7364,250.58929 38.9557,-35.70932 119.2223,-3.72734"
       id="path9084-6"
       inkscape:connector-curvature="0"
       sodipodi:nodetypes="ccc" />
    <path
       style="fill:#c7a455;fill-opacity:1;stroke:#000000;stroke-width:1px;stroke-linecap:butt;stroke-linejoin:miter;stroke-opacity:1;display:inline"
       d="m 1207.1954,169.9728 41.1198,-35.16827 117.408,-1.62315"
       id="path9086-1"
       inkscape:connector-curvature="0"
       sodipodi:nodetypes="ccc" />
    <path
       style="fill:#c7a455;fill-opacity:1;stroke:#000000;stroke-width:1px;stroke-linecap:butt;stroke-linejoin:miter;stroke-opacity:1;display:inline"
       d="m 1198.5618,90.527243 -0.1718,-8.05973"
       id="path9088-8"
       inkscape:connector-curvature="0"
       sodipodi:nodetypes="cc" />
    <path
       style="fill:#c7a455;fill-opacity:1;stroke:#000000;stroke-width:1px;stroke-linecap:butt;stroke-linejoin:miter;stroke-opacity:1;display:inline"
       d="m 1371.6747,83.675263 -72.5007,0.27053 0,231.569527 74.1239,-1.0821 z"
       id="path9072-7"
       inkscape:connector-curvature="0"
       sodipodi:nodetypes="ccccc" />
    <path
       style="fill:#c7a455;fill-opacity:1;stroke:#000000;stroke-width:1px;stroke-linecap:butt;stroke-linejoin:miter;stroke-opacity:1;display:inline"
       d="m 1239.9289,324.44265 0.2705,16.50204 7.5748,-2.1642 0,-14.60836 0,0"
       id="path9096-0"
       inkscape:connector-curvature="0"
       sodipodi:nodetypes="ccccc" />
    <path
       sodipodi:type="arc"
       style="color:#000000;fill:#17130f;fill-opacity:1;fill-rule:evenodd;stroke:#000000;stroke-width:1;stroke-opacity:1;marker:none;visibility:visible;display:inline;overflow:visible;enable-background:accumulate"
       id="path9173"
       sodipodi:cx="1306.366"
       sodipodi:cy="206.19766"
       sodipodi:rx="4.0578771"
       sodipodi:ry="5.4105029"
       d="m 1309.8882,203.51091 a 4.0578771,5.4105029 0 1 1 -0.01,-0.0185"
       sodipodi:start="5.7635304"
       sodipodi:end="12.042772"
       sodipodi:open="true" />
  </g>
  <g
     inkscape:groupmode="layer"
     id="layer6"
     inkscape:label="paus"
     style="display:inline">
    <g
       id="g9382">
      <path
         sodipodi:nodetypes="ccccccccccc"
         inkscape:connector-curvature="0"
         id="path8761"
         d="m 84.167673,346.73424 c 0,-1.53033 0,-47.43997 0,-47.43997 l 43.996737,0.38258 0,44.7619 60.49013,-0.0696 -0.0424,-45.84002 41.92935,-0.0464 0.15449,46.72122 49.50172,-0.0985 C 257.07936,112.52536 15.052488,147.82886 28.505222,347.49177 z"
         style="fill:#ffffff;fill-opacity:1;stroke:#000000;stroke-width:1px;stroke-linecap:butt;stroke-linejoin:miter;stroke-opacity:1" />
      <path
         sodipodi:nodetypes="cccccc"
         inkscape:connector-curvature="0"
         id="path8769"
         d="m 99.630765,299.64786 -15.397021,-0.30603 -0.0033,47.26914 0.08438,0.0422 15.299497,-16.36987 0,-30.65424"
         style="fill:#cccccc;fill-opacity:0.94117647;stroke:#000000;stroke-width:1px;stroke-linecap:butt;stroke-linejoin:miter;stroke-opacity:1" />
      <path
         sodipodi:nodetypes="cccccc"
         inkscape:connector-curvature="0"
         id="path8771"
         d="m 205.46795,298.63602 -16.77279,0.41947 -0.0215,45.03045 0.1933,0.12315 16.9351,-17.5601 0,-27.79646"
         style="fill:#cccccc;fill-opacity:1;stroke:#000000;stroke-width:1px;stroke-linecap:butt;stroke-linejoin:miter;stroke-opacity:1" />
      <path
         sodipodi:nodetypes="cccc"
         inkscape:connector-curvature="0"
         id="path8773"
         d="m 134.7169,184.90545 c 95.84903,-0.22762 128.76517,74.74302 145.048,160.12458 l 17.8826,-20.29416 C 290.82599,279.61013 263.27252,165.598 134.98618,184.69224"
         style="fill:#cccccc;fill-opacity:1;stroke:#000000;stroke-width:1px;stroke-linecap:butt;stroke-linejoin:miter;stroke-opacity:1" />
      <path
         sodipodi:nodetypes="cccc"
         inkscape:connector-curvature="0"
         id="path9224"
         d="m 101.38379,267.44446 -20.085469,0 c 30.811949,-56.5054 75.151799,-45.57931 96.027659,-39.21448 -23.03158,1.52417 -63.75337,2.37642 -75.94219,39.21448 z"
         style="fill:#cccccc;fill-opacity:1;stroke:#000000;stroke-width:1px;stroke-linecap:butt;stroke-linejoin:miter;stroke-opacity:1" />
      <path
         sodipodi:nodetypes="ccc"
         inkscape:connector-curvature="0"
         id="path9226"
         d="m 101.57508,267.44446 119.55635,0 c -8.39919,-13.46656 -15.02846,-27.71524 -44.47496,-39.50142"
         style="fill:none;stroke:#000000;stroke-width:1px;stroke-linecap:butt;stroke-linejoin:miter;stroke-opacity:1" />
    </g>
    <g
       id="g9481">
      <path
         sodipodi:nodetypes="ccccccccccc"
         inkscape:connector-curvature="0"
         id="path8761-3"
         d="m 436.44133,350.94011 c 0,-1.53033 0,-47.43997 0,-47.43997 l 43.99674,0.38258 0,44.7619 60.49013,-0.0696 -0.0424,-45.84002 41.92935,-0.0464 0.15449,46.72122 49.50172,-0.0985 C 609.35302,116.73124 367.32615,152.03474 380.77888,351.69764 z"
         style="fill:#f6f4bb;fill-opacity:1;stroke:#000000;stroke-width:1px;stroke-linecap:butt;stroke-linejoin:miter;stroke-opacity:1;display:inline" />
      <path
         sodipodi:nodetypes="cccccc"
         inkscape:connector-curvature="0"
         id="path8769-9"
         d="m 451.90443,303.85373 -15.39703,-0.30603 -0.003,47.26914 0.0844,0.0422 15.2995,-16.36987 0,-30.65424"
         style="fill:#f6f46f;fill-opacity:1;stroke:#000000;stroke-width:1px;stroke-linecap:butt;stroke-linejoin:miter;stroke-opacity:1;display:inline;color:#000000;fill-rule:nonzero;stroke-miterlimit:4;stroke-dasharray:none;stroke-dashoffset:0;marker:none;visibility:visible;overflow:visible;enable-background:accumulate" />
      <path
         sodipodi:nodetypes="cccccc"
         inkscape:connector-curvature="0"
         id="path8771-3"
         d="m 557.74161,302.84189 -16.77279,0.0137 -0.0215,45.43624 0.1933,0.12315 16.9351,-17.5601 0,-27.79646"
         style="fill:#f6f46f;fill-opacity:1;stroke:#000000;stroke-width:1px;stroke-linecap:butt;stroke-linejoin:miter;stroke-opacity:1;display:inline;color:#000000;fill-rule:nonzero;stroke-miterlimit:4;stroke-dasharray:none;stroke-dashoffset:0;marker:none;visibility:visible;overflow:visible;enable-background:accumulate" />
      <path
         sodipodi:nodetypes="cccc"
         inkscape:connector-curvature="0"
         id="path8773-3"
         d="m 486.99056,189.11133 c 95.84903,-0.22762 128.76517,74.74302 145.048,160.12457 l 17.8826,-20.29416 C 643.09965,283.81601 615.54618,169.80388 487.25984,188.89812"
         style="fill:#f6f46f;fill-opacity:1;stroke:#000000;stroke-width:1px;stroke-linecap:butt;stroke-linejoin:miter;stroke-opacity:1;display:inline;color:#000000;fill-rule:nonzero;stroke-miterlimit:4;stroke-dasharray:none;stroke-dashoffset:0;marker:none;visibility:visible;overflow:visible;enable-background:accumulate" />
      <path
         sodipodi:nodetypes="cccc"
         inkscape:connector-curvature="0"
         id="path9224-4"
         d="m 453.65745,271.65034 -20.08547,0 c 30.81195,-56.5054 75.1518,-45.57931 96.02766,-39.21448 -23.03158,1.52417 -63.75337,2.37642 -75.94219,39.21448 z"
         style="fill:#f6f46f;fill-opacity:1;stroke:#000000;stroke-width:1px;stroke-linecap:butt;stroke-linejoin:miter;stroke-opacity:1;display:inline" />
      <path
         sodipodi:nodetypes="cccc"
         inkscape:connector-curvature="0"
         id="path9226-6"
         d="m 528.91947,232.35656 c -27.20631,-6.85993 -66.14392,10.26552 -74.97795,39.43084 l 119.46357,-0.13706 c -8.39919,-13.46656 -14.75793,-27.44471 -44.20443,-39.23089"
         style="fill:#ffffff;fill-opacity:1;stroke:#000000;stroke-width:1px;stroke-linecap:butt;stroke-linejoin:miter;stroke-opacity:1;display:inline" />
    </g>
    <path
       style="fill:#ffffff;fill-opacity:1;stroke:#000000;stroke-width:1;stroke-linecap:butt;stroke-linejoin:miter;stroke-miterlimit:4;stroke-opacity:1;stroke-dasharray:none"
       d="m 839.44557,157.83286 c 0,-0.28836 0,-8.93905 0,-8.93905 l 8.29024,0.0721 0,8.43442 11.39808,-0.0131 -0.008,-8.63757 7.90069,-0.009 0.0291,8.80362 9.32754,-0.0186 c -4.35616,-43.82475 -49.96095,-37.17256 -47.42607,0.44965 z"
       id="path8761-7"
       inkscape:connector-curvature="0"
       sodipodi:nodetypes="ccccccccccc" />
    <path
       style="fill:#cccccc;fill-opacity:0.94117647;stroke:#000000;stroke-width:1;stroke-linecap:butt;stroke-linejoin:miter;stroke-miterlimit:4;stroke-opacity:1;stroke-dasharray:none"
       d="m 842.35926,148.96044 -2.90124,-0.0577 -6.2e-4,8.90686 0.0159,0.008 2.88286,-3.08455 0,-5.77613"
       id="path8769-2"
       inkscape:connector-curvature="0"
       sodipodi:nodetypes="cccccc" />
    <path
       style="fill:#cccccc;fill-opacity:1;stroke:#000000;stroke-width:1;stroke-linecap:butt;stroke-linejoin:miter;stroke-miterlimit:4;stroke-opacity:1;stroke-dasharray:none"
       d="m 862.30201,148.76978 -3.16047,0.079 -0.004,8.48503 0.0364,0.0232 3.19106,-3.30883 0,-5.23764"
       id="path8771-2"
       inkscape:connector-curvature="0"
       sodipodi:nodetypes="cccccc" />
    <path
       style="fill:#cccccc;fill-opacity:1;stroke:#000000;stroke-width:1;stroke-linecap:butt;stroke-linejoin:miter;stroke-miterlimit:4;stroke-opacity:1;stroke-dasharray:none"
       d="m 848.97049,127.33968 c 18.0607,-0.0429 24.26305,14.08373 27.3312,30.17206 l 3.36959,-3.824 c -1.28537,-8.50298 -6.47723,-29.98613 -30.65005,-26.38823"
       id="path8773-9"
       inkscape:connector-curvature="0"
       sodipodi:nodetypes="cccc" />
    <path
       style="fill:#cccccc;fill-opacity:1;stroke:#000000;stroke-width:1;stroke-linecap:butt;stroke-linejoin:miter;stroke-miterlimit:4;stroke-opacity:1;stroke-dasharray:none"
       d="m 842.68958,142.8924 -3.78468,0 c 5.80585,-10.64724 14.16075,-8.58845 18.09436,-7.38913 -4.33981,0.28719 -12.01296,0.44778 -14.30968,7.38913 z"
       id="path9224-2"
       inkscape:connector-curvature="0"
       sodipodi:nodetypes="cccc" />
    <path
       style="fill:#c7a455;fill-opacity:1;stroke:#000000;stroke-width:1;stroke-linecap:butt;stroke-linejoin:miter;stroke-miterlimit:4;stroke-opacity:1;stroke-dasharray:none"
       d="m 856.97674,135.52773 c -9.10722,0.27418 -12.79955,3.28401 -13.91315,7.36467 l 22.18987,0 c -1.58265,-2.53749 -2.83179,-5.22235 -8.38035,-7.4432"
       id="path9226-8"
       inkscape:connector-curvature="0"
       sodipodi:nodetypes="cccc" />
    <path
       style="fill:#cccccc;fill-opacity:0.94117647;stroke:#000000;stroke-width:1;stroke-linecap:butt;stroke-linejoin:miter;stroke-miterlimit:4;stroke-opacity:1;stroke-dasharray:none"
       d="m 1248.6982,150.10818 -2.9013,-0.0577 -6e-4,8.90686 0.016,0.008 2.8829,-3.08456 0,-5.77613"
       id="path8769-2-3"
       inkscape:connector-curvature="0"
       sodipodi:nodetypes="cccccc" />
    <path
       style="fill:#f6f4bb;fill-opacity:1;stroke:#000000;stroke-width:1;stroke-linecap:butt;stroke-linejoin:miter;stroke-miterlimit:4;stroke-opacity:1;stroke-dasharray:none;display:inline"
       d="m 913.50391,155.48532 c 0,-0.27365 0,-8.4832 0,-8.4832 l 7.86749,0.0684 0,8.00432 10.81682,-0.0125 -0.008,-8.1971 7.4978,-0.008 0.0276,8.35468 8.85189,-0.0176 c -4.13402,-41.5899 -47.4132,-35.27694 -45.00758,0.42673 z"
       id="path8761-3-6"
       inkscape:connector-curvature="0"
       sodipodi:nodetypes="ccccccccccc" />
    <path
       style="color:#000000;fill:#f6f46f;fill-opacity:1;fill-rule:nonzero;stroke:#000000;stroke-width:1;stroke-linecap:butt;stroke-linejoin:miter;stroke-miterlimit:4;stroke-opacity:1;stroke-dasharray:none;stroke-dashoffset:0;marker:none;visibility:visible;display:inline;overflow:visible;enable-background:accumulate"
       d="m 916.26902,147.06535 -2.75329,-0.0547 -5.4e-4,8.45265 0.0151,0.008 2.73585,-2.92726 0,-5.48158"
       id="path8769-9-8"
       inkscape:connector-curvature="0"
       sodipodi:nodetypes="cccccc" />
    <path
       style="color:#000000;fill:#f6f46f;fill-opacity:1;fill-rule:nonzero;stroke:#000000;stroke-width:1;stroke-linecap:butt;stroke-linejoin:miter;stroke-miterlimit:4;stroke-opacity:1;stroke-dasharray:none;stroke-dashoffset:0;marker:none;visibility:visible;display:inline;overflow:visible;enable-background:accumulate"
       d="m 935.19479,146.88441 -2.9993,0.002 -0.004,8.1249 0.0346,0.022 3.02833,-3.14009 0,-4.97056"
       id="path8771-3-1"
       inkscape:connector-curvature="0"
       sodipodi:nodetypes="cccccc" />
    <path
       style="color:#000000;fill:#f6f46f;fill-opacity:1;fill-rule:nonzero;stroke:#000000;stroke-width:1;stroke-linecap:butt;stroke-linejoin:miter;stroke-miterlimit:4;stroke-opacity:1;stroke-dasharray:none;stroke-dashoffset:0;marker:none;visibility:visible;display:inline;overflow:visible;enable-background:accumulate"
       d="m 922.54311,126.54715 c 17.1397,-0.0407 23.02575,13.36552 25.93744,28.63343 l 3.19777,-3.629 c -1.21982,-8.06937 -6.14693,-28.45699 -29.08706,-25.04256"
       id="path8773-3-3"
       inkscape:connector-curvature="0"
       sodipodi:nodetypes="cccc" />
    <path
       style="fill:#f6f46f;fill-opacity:1;stroke:#000000;stroke-width:1;stroke-linecap:butt;stroke-linejoin:miter;stroke-miterlimit:4;stroke-opacity:1;stroke-dasharray:none;display:inline"
       d="m 916.58249,141.30675 -3.59168,0 c 5.50979,-10.10428 13.43863,-8.15048 17.17164,-7.01232 -4.1185,0.27255 -11.40036,0.42495 -13.57996,7.01232 z"
       id="path9224-4-6"
       inkscape:connector-curvature="0"
       sodipodi:nodetypes="cccc" />
    <path
       style="fill:#c7a455;fill-opacity:1;stroke:#000000;stroke-width:1;stroke-linecap:butt;stroke-linejoin:miter;stroke-miterlimit:4;stroke-opacity:1;stroke-dasharray:none;display:inline"
       d="m 930.04083,134.28025 c -4.86503,-1.22669 -11.82784,1.83567 -13.40754,7.05101 l 21.36244,-0.0245 c -1.50194,-2.40809 -2.63901,-4.90766 -7.90462,-7.01526"
       id="path9226-6-4"
       inkscape:connector-curvature="0"
       sodipodi:nodetypes="cccc" />
    <g
       id="g9642"
       transform="translate(-6.3125755,-27.163204)">
      <path
         sodipodi:nodetypes="ccccccccccc"
         inkscape:connector-curvature="0"
         id="path8761-7-0"
         d="m 1252.4796,186.33522 c 0,-0.28836 0,-8.93905 0,-8.93905 l 8.2903,0.0721 0,8.43442 11.398,-0.0131 -0.01,-8.63757 7.9007,-0.009 0.029,8.80362 9.3276,-0.0186 c -4.3562,-43.82475 -49.961,-37.17256 -47.4261,0.44965 z"
         style="fill:#ffffff;fill-opacity:1;stroke:#000000;stroke-width:1;stroke-linecap:butt;stroke-linejoin:miter;stroke-miterlimit:4;stroke-opacity:1;stroke-dasharray:none;display:inline" />
      <path
         sodipodi:nodetypes="cccccc"
         inkscape:connector-curvature="0"
         id="path8769-2-35"
         d="m 1255.3933,177.4628 -2.9012,-0.0577 -7e-4,8.90686 0.016,0.008 2.8829,-3.08455 0,-5.77613"
         style="fill:#cccccc;fill-opacity:0.94117647;stroke:#000000;stroke-width:1;stroke-linecap:butt;stroke-linejoin:miter;stroke-miterlimit:4;stroke-opacity:1;stroke-dasharray:none;display:inline" />
      <path
         sodipodi:nodetypes="cccccc"
         inkscape:connector-curvature="0"
         id="path8771-2-8"
         d="m 1275.3361,177.27214 -3.1605,0.079 0,8.48503 0.036,0.0232 3.191,-3.30883 0,-5.23764"
         style="fill:#cccccc;fill-opacity:1;stroke:#000000;stroke-width:1;stroke-linecap:butt;stroke-linejoin:miter;stroke-miterlimit:4;stroke-opacity:1;stroke-dasharray:none;display:inline" />
      <path
         sodipodi:nodetypes="cccc"
         inkscape:connector-curvature="0"
         id="path8773-9-5"
         d="m 1262.0045,155.84204 c 18.0607,-0.0429 24.2631,14.08373 27.3312,30.17206 l 3.3696,-3.824 c -1.2853,-8.50298 -6.4772,-29.98613 -30.65,-26.38823"
         style="fill:#cccccc;fill-opacity:1;stroke:#000000;stroke-width:1;stroke-linecap:butt;stroke-linejoin:miter;stroke-miterlimit:4;stroke-opacity:1;stroke-dasharray:none;display:inline" />
      <path
         sodipodi:nodetypes="cccc"
         inkscape:connector-curvature="0"
         id="path9224-2-0"
         d="m 1255.7236,171.39476 -3.7847,0 c 5.8059,-10.64724 14.1608,-8.58845 18.0944,-7.38913 -4.3398,0.28719 -12.013,0.44778 -14.3097,7.38913 z"
         style="fill:#cccccc;fill-opacity:1;stroke:#000000;stroke-width:1;stroke-linecap:butt;stroke-linejoin:miter;stroke-miterlimit:4;stroke-opacity:1;stroke-dasharray:none;display:inline" />
      <path
         sodipodi:nodetypes="cccc"
         inkscape:connector-curvature="0"
         id="path9226-8-9"
         d="m 1270.0108,164.03009 c -9.1072,0.27418 -12.7996,3.28401 -13.9132,7.36467 l 22.1899,0 c -1.5826,-2.53749 -2.8318,-5.22235 -8.3803,-7.4432"
         style="fill:#c7a455;fill-opacity:1;stroke:#000000;stroke-width:1;stroke-linecap:butt;stroke-linejoin:miter;stroke-miterlimit:4;stroke-opacity:1;stroke-dasharray:none;display:inline" />
    </g>
  </g>
</svg>
